<?xml version="1.0" ?><svg id="Layer_1_1_" style="enable-background:new 0 0 64 64;" version="1.1" viewBox="0 0 64 64" xml:space="preserve" xmlns="http://www.w3.org/2000/svg" xmlns:xlink="http://www.w3.org/1999/xlink"><g><path d="M54,13H32c0-3.719-2.555-6.845-6-7.737V1h-8v4.263C14.555,6.155,12,9.281,12,13h-2   c-4.963,0-9,4.037-9,9v41h62V22C63,17.037,58.963,13,54,13z M20,3h4v2h-4V3z M20,7h4c3.309,0,6,2.691,6,6v2v6c0,3.309-2.691,6-6,6   h-4c-3.309,0-6-2.691-6-6v-6v-2C14,9.691,16.691,7,20,7z M18,28.737V45h-7v10h22V45h-7V28.737c3.445-0.892,6-4.017,6-7.737v-2h21   c2.206,0,4,1.794,4,4v34H7V23c0-2.206,1.794-4,4-4h1v2C12,24.719,14.555,27.845,18,28.737z M26,51v-4h5v6H13v-6h5v4H26z M24,49h-4   V29h4V49z M61,61H3V22c0-3.859,3.141-7,7-7h2v2h-1c-3.309,0-6,2.691-6,6v36h54V23c0-3.309-2.691-6-6-6H32v-2h22   c3.859,0,7,3.141,7,7V61z" style="fill:#5d646d;"/><path d="M53,21H37v10h16V21z M51,29H39v-6h12V29z" style="fill:#5d646d;"/><path d="M53,33H37v10h16V33z M51,41H39v-6h12V41z" style="fill:#5d646d;"/><path d="M53,45H37v10h16V45z M51,53H39v-6h12V53z" style="fill:#5d646d;"/><rect height="2" style="fill:#5d646d;" width="2" x="40" y="26"/><rect height="2" style="fill:#5d646d;" width="2" x="40" y="38"/><rect height="2" style="fill:#5d646d;" width="2" x="40" y="50"/><rect height="2" style="fill:#5d646d;" width="2" x="16" y="21"/><rect height="9" style="fill:#5d646d;" width="2" x="16" y="10"/></g></svg>